<?xml version="1.0" encoding="UTF-8" standalone="no"?>
<!-- Created with Inkscape (http://www.inkscape.org/) -->

<svg
   width="30.143412mm"
   height="30.142216mm"
   viewBox="0 0 30.143412 30.142216"
   version="1.1"
   id="svg1"
   xmlns="http://www.w3.org/2000/svg"
   xmlns:svg="http://www.w3.org/2000/svg">
  <defs
     id="defs1" />
  <g
     id="layer1"
     transform="translate(-227.92735,-159.60026)">
    <path
       fill="#f05133"
       d="m 257.50244,173.32883 -13.16169,-13.16009 c -0.7573,-0.75797 -1.98655,-0.75797 -2.74479,0 l -2.73288,2.73315 3.46657,3.46657 c 0.80589,-0.2721 1.72961,-0.0897 2.3717,0.55256 0.64542,0.64621 0.82655,1.57781 0.54763,2.38641 l 3.34116,3.34115 c 0.80833,-0.27855 1.74096,-0.0986 2.38641,0.54801 0.90239,0.90212 0.90239,2.36392 0,3.26628 -0.90252,0.90265 -2.36432,0.90265 -3.26734,0 -0.67853,-0.67905 -0.84635,-1.676 -0.50268,-2.51201 l -3.116,-3.11599 -2.7e-4,8.1997 c 0.22001,0.1089 0.42762,0.25426 0.61095,0.4368 0.90213,0.90201 0.90213,2.36355 0,3.26707 -0.90238,0.90199 -2.36484,0.90199 -3.26628,0 -0.90225,-0.90345 -0.90225,-2.36498 0,-3.26707 0.22298,-0.22258 0.48099,-0.39106 0.75629,-0.50398 v -8.2759 c -0.27543,-0.11245 -0.53314,-0.27967 -0.75645,-0.50403 -0.68342,-0.68289 -0.84801,-1.68593 -0.49752,-2.52516 l -3.41736,-3.41789 -9.02388,9.02362 c -0.75821,0.75856 -0.75821,1.98781 0,2.74584 l 13.16091,13.16011 c 0.75771,0.75798 1.98654,0.75798 2.74531,0 l 13.10005,-13.09793 c 0.75798,-0.75835 0.75798,-1.98797 0,-2.74611"
       id="path4"
       style="stroke-width:0.264583" />
  </g>
</svg>
