<?xml version="1.0" encoding="UTF-8" standalone="no"?>
<svg
   width="35.761002"
   height="49"
   viewBox="0 0 35.761002 49"
   fill="none"
   version="1.1"
   id="svg1"
   sodipodi:docname="app.svg"
   xml:space="preserve"
   inkscape:version="1.4 (86a8ad7, 2024-10-11)"
   xmlns:inkscape="http://www.inkscape.org/namespaces/inkscape"
   xmlns:sodipodi="http://sodipodi.sourceforge.net/DTD/sodipodi-0.dtd"
   xmlns="http://www.w3.org/2000/svg"
   xmlns:svg="http://www.w3.org/2000/svg"><defs
     id="defs1" /><sodipodi:namedview
     id="namedview1"
     pagecolor="#505050"
     bordercolor="#eeeeee"
     borderopacity="1"
     inkscape:showpageshadow="0"
     inkscape:pageopacity="0"
     inkscape:pagecheckerboard="0"
     inkscape:deskcolor="#505050"
     inkscape:zoom="0.69223485"
     inkscape:cx="-161.7948"
     inkscape:cy="126.40219"
     inkscape:window-width="1920"
     inkscape:window-height="991"
     inkscape:window-x="-9"
     inkscape:window-y="-9"
     inkscape:window-maximized="1"
     inkscape:current-layer="svg1" /><path
     style="fill:#5599ff;fill-opacity:1;stroke-width:0.0738051"
     d="m 0.03976079,47.761922 c 0.0439,-1.36138 0.11807,-1.72519 0.52079,-2.55532 0.64142001,-1.32218 1.89401001,-2.33713 3.34110001,-2.70723 0.48656,-0.12445 0.81881,-0.14555 2.29168,-0.14555 h 1.72261 v -3.31041 -3.31041 l -0.53144,-0.0878 c -1.64046,-0.27092 -3.19334,-1.15122 -4.61432,-2.61578 -1.32663,-1.36732 -2.10750001,-2.80102 -2.57920001,-4.7355 -0.11462,-0.47005 -0.12848,-1.36518 -0.15367,-9.92678 -0.0198,-6.72349 -0.004,-9.6050895 0.0561,-10.0929395 0.23417,-1.90926 0.97388001,-3.51701 2.32980001,-5.06376 1.56059,-1.78021 3.72619,-2.91858002 5.99126,-3.14935002 0.54477,-0.0555 3.6703202,-0.0724 9.9818502,-0.0539 9.09131,0.0266 9.19551,0.0286 9.82849,0.18468 2.69646,0.66496 5.03758,2.37405002 6.36562,4.64711002 0.33991,0.58177 0.74845,1.63738 0.94887,2.45172 0.15364,0.62426 0.15616,0.76282 0.18178,10.0062695 0.0165,5.93782 -10e-4,9.64375 -0.0482,10.1113 -0.23815,2.37012 -1.39963,4.56728 -3.30235,6.24696 -1.19801,1.05758 -2.80438,1.82674 -4.21353,2.01751 l -0.38748,0.0525 v 3.30693 3.30694 l 1.86358,0.0314 c 1.77386,0.0299 1.89201,0.0408 2.45402,0.22689 1.6946,0.56109 3.01188,1.913 3.46628,3.55741 0.0781,0.28245 0.13783,0.87717 0.16506,1.64216 l 0.0427,1.19933 h -1.22812 -1.22812 v -0.83325 c 0,-0.51083 -0.044,-1.00346 -0.1137,-1.27314 -0.20851,-0.80672 -0.82027,-1.52031 -1.62313,-1.89328 l -0.36662,-0.17032 H 17.879651 4.5578308 l -0.47973,0.22861 c -0.79998,0.38121 -1.34046,1.03865 -1.54902,1.88424 -0.0438,0.1775 -0.0868,0.70466 -0.0956,1.17148 l -0.016,0.84876 -1.20882,0.0203 -1.20882000654,0.0203 z M 25.444651,39.032592 v -3.28432 l -7.58347,-0.0188 -7.58347,-0.0188 v 3.32192 3.32193 l 7.58347,-0.0188 7.58347,-0.0188 z m 2.9203,-5.87975 c 0.73053,-0.20841 1.5711,-0.62281 2.09095,-1.03082 l 0.41708,-0.32735 -0.44475,-0.38788 c -0.55283,-0.48214 -1.11,-0.82311 -1.75523,-1.07413 l -0.49756,-0.19358 -9.96369,-0.0199 c -10.8551202,-0.0217 -10.5402402,-0.0324 -11.4642002,0.3906 -0.3964,0.18148 -1.07695,0.64645 -1.5483,1.05786 l -0.24423,0.21317 0.42874,0.34166 c 0.72506,0.57779 1.74827,1.00438 2.8274,1.17879 0.10149,0.0164 4.5519302,0.0256 9.8898902,0.0204 l 9.70537,-0.009 z M 3.8819608,29.540852 c 0.89272,-0.81273 1.86935,-1.35966 2.98606,-1.67224 0.54885,-0.15363 0.72455,-0.15992 5.1625602,-0.18461 l 4.59436,-0.0256 v -1.32441 -1.32441 h -3.69392 c -4.0766802,0 -3.9908902,0.009 -4.2800102,-0.46486 -0.1374,-0.22534 -0.14409,-0.39441 -0.14435,-3.64977 -1.5e-4,-1.87742 -0.0277,-3.41349 -0.0612,-3.41349 -0.0335,0 -0.13642,0.0803 -0.22867,0.17855 -0.50847,0.54124 -1.68496,0.69246 -2.45526,0.31558 -0.47897,-0.23434 -0.89376,-0.66023 -1.11939,-1.14934 -0.12369,-0.26816 -0.15737,-0.48329 -0.15737,-1.0054 0,-0.82217 0.17075,-1.24396 0.70762,-1.74801 0.49253,-0.46242 0.92813,-0.60483 1.71739,-0.56149 0.63872,0.0351 0.99446,0.17122 1.41211,0.54044 l 0.22142,0.19573 0.0618,-0.32041 c 0.37703,-1.95325 1.23787,-3.54115 2.6717602,-4.9283095 2.31751,-2.24198 5.35966,-3.13494 8.53892,-2.50641 2.80253,0.55406 5.28105,2.44321 6.54895,4.9916795 0.2946,0.59215 0.70027,1.81324 0.78487,2.36249 0.0266,0.17252 0.0606,0.31367 0.0756,0.31367 0.015,0 0.18513,-0.11282 0.37804,-0.25072 0.47225,-0.33759 0.8469,-0.43709 1.50285,-0.39914 0.90195,0.0522 1.61131,0.50985 1.98926,1.28345 0.14169,0.29003 0.1775,0.48151 0.17855,0.95478 0.001,0.52204 -0.0275,0.65044 -0.24222,1.08669 -0.64998,1.32029 -2.25855,1.76689 -3.39607,0.94286 l -0.30897,-0.22381 v 3.32407 c 0,3.67326 -0.004,3.70539 -0.45684,3.98167 -0.23655,0.14422 -0.36323,0.14896 -3.98991,0.14923 l -3.74561,2.9e-4 v 1.32849 1.3285 l 4.29915,10e-4 c 2.45505,8.3e-4 4.52075,0.033 4.81578,0.0751 1.33208,0.18979 2.66972,0.86888 3.73833,1.89787 l 0.3433,0.33057 0.11158,-0.17457 c 0.18731,-0.29303 0.47873,-1.04619 0.65665,-1.6971 l 0.16888,-0.61782 v -9.55776 c 0,-10.8317695 0.0507,-9.9100995 -0.62341,-11.3290795 -0.41304,-0.86941 -0.84271,-1.45926 -1.54677,-2.12344 -0.92055,-0.86839 -2.03788,-1.50602 -3.23355,-1.8453 l -0.57448,-0.16301 -9.04112,-0.0223 c -6.23774,-0.0154 -9.2356502,0.003 -9.6684702,0.0584 -2.70882,0.34856 -5.09752,2.41165 -5.87039,5.07018 -0.12094,0.41603 -0.21183,0.97227 -0.25302,1.54856 -0.0628,0.87828 -0.0341,16.8246095 0.0324,17.9947795 0.0185,0.32474 0.1028,0.83953 0.18746,1.14398 0.14196,0.51056 0.64456,1.69751 0.71878,1.69751 0.0177,0 0.23661,-0.18617 0.48655,-0.41371 z M 24.943971,18.717742 c -0.0327,-4.34446 -0.0395,-4.42409 -0.47105,-5.50484 -0.44629,-1.11767 -1.33883,-2.26079 -2.3864,-3.05637 -0.65137,-0.4946895 -1.81547,-1.0499495 -2.62008,-1.2497395 -0.92691,-0.23016 -2.47159,-0.23099 -3.30527,-0.002 -2.3388,0.64303 -4.31357,2.4721295 -4.95677,4.5911395 -0.31042,1.0227 -0.33605,1.4348 -0.33615,5.4061 l -8e-5,3.81942 h 7.05298 7.05297 z m -8.06071,0.94194 c -1.61887,-0.43897 -2.81946,-1.75764 -3.06991,-3.37185 -0.3247,-2.09272 1.12563,-4.15539 3.23629,-4.60267 1.39075,-0.29471 2.67466,0.10053 3.70838,1.14162 0.64528,0.64986 0.97788,1.24801 1.15191,2.07155 0.52532,2.48601 -1.45005,4.88534 -4.00641,4.86627 -0.35818,-0.003 -0.81729,-0.0499 -1.02026,-0.10492 z"
     id="path2" /></svg>
