<?xml version="1.0" encoding="UTF-8" standalone="no"?>
<!-- Created with Inkscape (http://www.inkscape.org/) -->

<svg
   version="1.0"
   id="svg2"
   width="83.37101pt"
   height="84.291748pt"
   xmlns:xlink="http://www.w3.org/1999/xlink"
   xmlns="http://www.w3.org/2000/svg"
   xmlns:svg="http://www.w3.org/2000/svg"
   xmlns:rdf="http://www.w3.org/1999/02/22-rdf-syntax-ns#"
   xmlns:cc="http://creativecommons.org/ns#"
   xmlns:dc="http://purl.org/dc/elements/1.1/">
  <metadata
     id="metadata371">
    <rdf:RDF>
      <cc:Work
         rdf:about="">
        <dc:format>image/svg+xml</dc:format>
        <dc:type
           rdf:resource="http://purl.org/dc/dcmitype/StillImage" />
      </cc:Work>
    </rdf:RDF>
  </metadata>
  <defs
     id="defs4">
    <linearGradient
       id="linearGradient4671">
      <stop
         style="stop-color:#ffd43b;stop-opacity:1;"
         offset="0"
         id="stop4673" />
      <stop
         style="stop-color:#ffe873;stop-opacity:1"
         offset="1"
         id="stop4675" />
    </linearGradient>
    <linearGradient
       id="linearGradient4689">
      <stop
         style="stop-color:#5a9fd4;stop-opacity:1;"
         offset="0"
         id="stop4691" />
      <stop
         style="stop-color:#306998;stop-opacity:1;"
         offset="1"
         id="stop4693" />
    </linearGradient>
    <linearGradient
       xlink:href="#linearGradient4671"
       id="linearGradient1475"
       gradientUnits="userSpaceOnUse"
       gradientTransform="matrix(0.562541,0,0,0.567972,-204.76854,-11.702371)"
       x1="150.96111"
       y1="192.35176"
       x2="112.03144"
       y2="137.27299" />
    <linearGradient
       xlink:href="#linearGradient4689"
       id="linearGradient1478"
       gradientUnits="userSpaceOnUse"
       gradientTransform="matrix(0.562541,0,0,0.567972,-204.76854,-11.702371)"
       x1="26.648937"
       y1="20.603781"
       x2="135.66525"
       y2="114.39767" />
  </defs>
  <g
     id="g1"
     transform="translate(189.77742)">
    <path
       style="fill:url(#linearGradient1478);fill-opacity:1"
       d="M -134.85864,9.1927389e-4 C -139.44229,0.02221727 -143.81957,0.41313697 -147.67114,1.0946693 c -11.34621,2.0045038 -13.40624,6.2001021 -13.40625,13.9374997 v 10.21875 h 26.8125 v 3.40625 h -26.8125 -10.0625 c -7.79245,0 -14.61575,4.683717 -16.75,13.59375 -2.46182,10.212966 -2.57101,16.586023 0,27.25 1.90593,7.937852 6.45755,13.593748 14.25,13.59375 h 9.21875 v -12.25 c 0,-8.849902 7.65715,-16.656248 16.75,-16.65625 h 26.78125 c 7.45496,0 13.40626,-6.138164 13.40625,-13.625 v -25.53125 c 0,-7.2663386 -6.12998,-12.7247771 -13.40625,-13.9374997 -4.60598,-0.76672533 -9.38509,-1.11504833 -13.96875,-1.09375002611 z m -14.5,8.21875012611 c 2.76955,0 5.03125,2.2986456 5.03125,5.1249996 0,2.816336 -2.2617,5.09375 -5.03125,5.09375 -2.77947,-1e-6 -5.03125,-2.277415 -5.03125,-5.09375 0,-2.826353 2.25178,-5.1249996 5.03125,-5.1249996 z"
       id="path1948" />
    <path
       style="fill:url(#linearGradient1475);fill-opacity:1"
       d="m -104.13989,28.657169 v 11.90625 c 0,9.230755 -7.82589,16.999999 -16.75,17 h -26.78125 c -7.33583,0 -13.40624,6.278483 -13.40625,13.625 v 25.531247 c 0,7.266344 6.31859,11.540324 13.40625,13.625004 8.48734,2.49561 16.62624,2.94663 26.78125,0 6.75016,-1.95439 13.40626,-5.88761 13.40625,-13.625004 V 86.500919 h -26.78125 v -3.40625 h 26.78125 13.406258 c 7.792461,0 10.696251,-5.435408 13.406241,-13.59375 2.79933,-8.398886 2.68022,-16.475776 0,-27.25 -1.92578,-7.757441 -5.60387,-13.59375 -13.406241,-13.59375 z m -15.0625,64.65625 c 2.77948,3e-6 5.03125,2.277417 5.03125,5.093747 0,2.826354 -2.25177,5.125004 -5.03125,5.125004 -2.76955,0 -5.03125,-2.29865 -5.03125,-5.125004 10e-6,-2.81633 2.2617,-5.093747 5.03125,-5.093747 z"
       id="path1950" />
  </g>
</svg>
