<?xml version="1.0" encoding="UTF-8" standalone="no"?>
<!-- Created with Inkscape (http://www.inkscape.org/) -->

<svg
   width="39.793324mm"
   height="45.164379mm"
   viewBox="0 0 39.793324 45.164379"
   version="1.1"
   id="svg1"
   xmlns="http://www.w3.org/2000/svg"
   xmlns:svg="http://www.w3.org/2000/svg">
  <defs
     id="defs1" />
  <g
     id="layer1"
     transform="translate(-129.64583,-180.44584)">
    <g
       id="g4"
       transform="matrix(0.26458333,0,0,0.26458333,129.67229,98.768958)">
      <path
         fill="#95bf47"
         d="m 131.5,341.9 c -0.1,-0.9 -0.9,-1.3 -1.5,-1.3 -0.6,0 -13.7,-1 -13.7,-1 0,0 -9.1,-9.1 -10.2,-10 -1,-1 -2.9,-0.7 -3.7,-0.5 -0.1,0 -2,0.6 -5.1,1.6 -3.1,-8.9 -8.4,-17 -17.9,-17 h -0.9 c -2.6,-3.4 -6,-5 -8.8,-5 -22,0 -32.6,27.5 -35.9,41.5 -8.6,2.7 -14.7,4.5 -15.4,4.8 -4.8,1.5 -4.9,1.6 -5.5,6.1 -0.5,3.4 -13,100.1 -13,100.1 L 97.2,479.4 150,468 c 0.1,-0.2 -18.4,-125.2 -18.5,-126.1 z m -39.6,-9.8 c -2.4,0.7 -5.3,1.6 -8.2,2.6 v -1.8 c 0,-5.4 -0.7,-9.8 -2,-13.3 5,0.6 8.1,6.1 10.2,12.5 z M 75.6,320.7 c 1.3,3.4 2.2,8.2 2.2,14.8 v 1 c -5.4,1.7 -11.1,3.4 -17,5.3 3.3,-12.6 9.6,-18.8 14.8,-21.1 z m -6.4,-6.2 c 1,0 2,0.4 2.8,1 -7.1,3.3 -14.6,11.6 -17.7,28.4 -4.7,1.5 -9.2,2.8 -13.5,4.2 3.6,-12.8 12.6,-33.6 28.4,-33.6 z"
         id="path1" />
      <path
         fill="#5e8e3e"
         d="m 130,340.4 c -0.6,0 -13.7,-1 -13.7,-1 0,0 -9.1,-9.1 -10.2,-10 -0.4,-0.4 -0.9,-0.6 -1.3,-0.6 L 97.5,479.4 150.3,468 c 0,0 -18.5,-125.2 -18.6,-126.1 -0.4,-0.9 -1.1,-1.3 -1.7,-1.5 z"
         id="path2" />
      <path
         fill="#ffffff"
         d="M 79.4,369.6 73,388.9 c 0,0 -5.8,-3.1 -12.7,-3.1 -10.3,0 -10.8,6.5 -10.8,8.1 0,8.8 23,12.2 23,32.9 0,16.3 -10.3,26.8 -24.2,26.8 -16.8,0 -25.2,-10.4 -25.2,-10.4 l 4.5,-14.8 c 0,0 8.8,7.6 16.2,7.6 4.9,0 6.9,-3.8 6.9,-6.6 0,-11.5 -18.8,-12 -18.8,-31 0,-15.9 11.4,-31.3 34.5,-31.3 8.6,-0.1 13,2.5 13,2.5 z"
         id="path3" />
    </g>
  </g>
</svg>
