<?xml version="1.0" encoding="UTF-8" standalone="no"?>
<svg
   version="1.0"
   width="512.000000pt"
   height="512.000000pt"
   viewBox="0 0 512.000000 512.000000"
   preserveAspectRatio="xMidYMid meet"
   id="svg1"
   sodipodi:docname="Vercel_favicon.svg"
   inkscape:version="1.4 (86a8ad7, 2024-10-11)"
   xmlns:inkscape="http://www.inkscape.org/namespaces/inkscape"
   xmlns:sodipodi="http://sodipodi.sourceforge.net/DTD/sodipodi-0.dtd"
   xmlns="http://www.w3.org/2000/svg"
   xmlns:svg="http://www.w3.org/2000/svg">
  <defs
     id="defs1" />
  <sodipodi:namedview
     id="namedview1"
     pagecolor="#505050"
     bordercolor="#eeeeee"
     borderopacity="1"
     inkscape:showpageshadow="0"
     inkscape:pageopacity="0"
     inkscape:pagecheckerboard="0"
     inkscape:deskcolor="#505050"
     inkscape:document-units="pt"
     inkscape:zoom="1.0708008"
     inkscape:cx="341.80027"
     inkscape:cy="341.33333"
     inkscape:window-width="1920"
     inkscape:window-height="991"
     inkscape:window-x="-9"
     inkscape:window-y="-9"
     inkscape:window-maximized="1"
     inkscape:current-layer="svg1" />
  <metadata
     id="metadata1">
Created by potrace 1.11, written by Peter Selinger 2001-2013
</metadata>
  <g
     transform="translate(0.000000,512.000000) scale(0.100000,-0.100000)"
     fill="#000000"
     stroke="none"
     id="g1"
     style="fill:#ffffff">
    <path
       d="M2310 5109 c-502 -55 -974 -249 -1355 -556 -129 -104 -340 -321 -433 -445 -265 -354 -434 -758 -498 -1193 -22 -147 -29 -428 -15 -575 42 -433 180 -833 405 -1174 414 -629 1047 -1032 1791 -1142 147 -22 428 -29 575 -15 433 42 833 180 1174 405 629 414 1032 1047 1142 1791 22 147 29 428 15 575 -51 524 -238 988 -558 1385 -104 129 -321 340 -445 433 -354 265 -755 432 -1193 498 -121 18 -487 26 -605 13z m909 -2348 c347 -607 631 -1105 631 -1107 0 -2 -569 -4 -1265 -4 -696 0 -1265 2 -1265 5 0 8 1263 2216 1266 2212 1 -1 287 -499 633 -1106z"
       id="path1"
       style="fill:#ffffff" />
  </g>
</svg>
